<svg width="341" height="531" viewBox="0 0 341 531" fill="none" xmlns="http://www.w3.org/2000/svg">
<path d="M179.606 277.427V450.351C179.606 494.68 166.633 514.224 106.25 514.224H77.5255V530.228H340.216V514.224H330.95C275.199 514.224 256.667 500.628 256.667 440.154V86.7987C256.667 33.9724 271.493 18.6768 327.243 16.9773V0.832031H88.7991V16.9773H106.404C164.008 16.9773 179.76 33.9724 179.76 79.1509V246.977H-184.547V98.6953C-184.547 32.981 -173.428 16.9773 -107.485 16.9773V0.832031H-328.169V16.9773C-277.206 20.3764 -261.3 33.1227 -261.3 77.3098V452.051C-261.3 500.628 -279.832 514.224 -334.655 514.224H-340.215V530.228H-107.176V514.224H-109.956C-172.192 514.224 -184.238 494.68 -184.238 439.163V277.285H179.914L179.606 277.427Z" fill="#DBB42C" fill-opacity="0.2"/>
</svg>
