<?xml version="1.0" encoding="UTF-8"?>
<svg id="Layer_1" xmlns="http://www.w3.org/2000/svg" viewBox="0 0 479.2 722.84">
  <defs>
    <style>
      .cls-1 {
        fill: #dbbc5d;
        stroke: #dbbc5d;
        stroke-miterlimit: 10;
      }
    </style>
  </defs>
  <path class="cls-1" d="M2.42,483.61H-2.45l1.02-1.01-200.39-199.64.71-.71L-14.13,95.97c7.78-7.75,20.44-7.75,28.22,0l187.69,186.99-.71.71L1.4,482.6l1.02,1.01ZM-198.98,282.96L-.02,481.19l198.97-198.22L12.68,97.39c-7-6.97-18.39-6.97-25.39,0l-186.27,185.58Z"/>
  <path class="cls-1" d="M.01,554.32c-4.98,0-9.96-1.84-13.81-5.52h0l-.32-.29-187.69-186.99.71-.71L0,160.46l.71.7,201.11,200.36-.71.71L14.12,548.51c-3.89,3.88-9,5.81-14.11,5.81ZM-13.01,546.8h.03l.29.29c7,6.97,18.39,6.97,25.39,0l186.27-185.58L0,163.28l-198.98,198.24L-13.01,546.8Z"/>
  <polygon class="cls-1" points="0 348.19 -133.44 215.24 -132.03 213.82 0 345.36 131.01 213.82 132.42 215.24 0 348.19"/>
  <path class="cls-1" d="M481.61,483.61h-4.87l1.02-1.01-200.39-199.64.71-.71,186.98-186.28c7.78-7.75,20.44-7.75,28.22,0l187.69,186.99-.71.71-199.67,198.93,1.02,1.01ZM280.21,282.96l198.97,198.22,198.97-198.22-186.27-185.58c-7-6.97-18.39-6.97-25.39,0l-186.27,185.58Z"/>
  <path class="cls-1" d="M479.21,554.32c-4.98,0-9.96-1.84-13.81-5.52h0l-.32-.29-187.69-186.99.71-.71,201.11-200.35.71.7,201.11,200.36-.71.71-186.98,186.28c-3.89,3.88-9,5.81-14.11,5.81ZM466.19,546.8h.03l.29.29c7,6.98,18.39,6.97,25.39,0l186.27-185.58-198.98-198.24-198.98,198.24,185.98,185.28Z"/>
  <polygon class="cls-1" points="479.2 348.19 345.75 215.24 347.17 213.82 479.19 345.36 610.2 213.82 611.62 215.24 479.2 348.19"/>
  <rect class="cls-1" x="176.63" y="320.63" width="126.89" height="2" transform="translate(-157.03 263.41) rotate(-44.92)"/>
  <path class="cls-1" d="M241.83,122.11h-4.87l1.02-1.01L37.59-78.54l.71-.71,186.98-186.28c7.78-7.75,20.44-7.75,28.22,0l187.69,186.99-.71.71L240.81,121.09l1.02,1.01ZM40.43-78.54L239.4,119.68l198.97-198.22-186.27-185.58c-7-6.98-18.39-6.98-25.39,0L40.43-78.54Z"/>
  <path class="cls-1" d="M239.43,192.82c-4.39,0-8.79-1.43-12.4-4.3v.18l-1.71-1.67L37.6.01l.71-.71,201.11-200.35.71.7L441.23.01l-.71.71-186.98,186.28c-3.89,3.88-9,5.81-14.11,5.81ZM225.02,183.89l1.71,1.7c7,6.97,18.39,6.98,25.39,0L438.39.01l-198.98-198.24L40.43.01l184.59,183.91v-.03Z"/>
  <rect class="cls-1" x="-62.79" y="682" width="126.87" height="2" transform="translate(-482.1 199.84) rotate(-44.92)"/>
  <rect class="cls-1" x="416.07" y="682.01" width="126.87" height="2" transform="translate(-342.32 537.97) rotate(-44.92)"/>
  <path class="cls-1" d="M241.83,844.96h-4.87l1.02-1.01-200.39-199.64.71-.71,186.98-186.28c7.78-7.75,20.44-7.75,28.22,0l187.69,186.99-.71.71-199.67,198.93,1.02,1.01ZM40.43,644.31l198.97,198.22,198.97-198.22-186.27-185.58c-7-6.98-18.39-6.97-25.39,0l-186.27,185.58Z"/>
  <path class="cls-1" d="M239.43,915.67c-4.39,0-8.79-1.43-12.4-4.3v.18l-1.71-1.67-187.72-187.02.71-.71,201.11-200.35.71.7,201.11,200.36-.71.71-186.98,186.28c-3.89,3.88-9,5.81-14.11,5.81ZM225.02,906.75l1.71,1.7c7,6.97,18.39,6.98,25.39,0l186.27-185.58-198.98-198.24-198.98,198.24,184.59,183.91v-.03Z"/>
  <polygon class="cls-1" points="239.42 709.54 105.97 576.59 107.38 575.17 239.41 706.71 370.42 575.18 371.84 576.59 239.42 709.54"/>
  <rect class="cls-1" x="416.4" y="682" width="126.87" height="2" transform="translate(-342.22 538.21) rotate(-44.92)"/>
  <rect class="cls-1" x="-63.13" y="682.01" width="126.87" height="2" transform="translate(-482.2 199.6) rotate(-44.92)"/>
</svg>