<svg width="52" height="52" viewBox="0 0 52 52" fill="none" xmlns="http://www.w3.org/2000/svg">
<path d="M34.861 26.6361V35.8814C34.861 38.2514 34.221 39.2963 31.2419 39.2963H29.8248V40.1519H42.7848V39.2963H42.3277C39.5772 39.2963 38.6629 38.5694 38.6629 35.3362V16.4443C38.6629 13.62 39.3943 12.8022 42.1448 12.7113V11.8481H30.381V12.7113H31.2496C34.0915 12.7113 34.8686 13.62 34.8686 16.0354V25.0081H16.8952V17.0803C16.8952 13.567 17.4438 12.7113 20.6971 12.7113V11.8481H9.8095V12.7113C12.3238 12.8931 13.1086 13.5745 13.1086 15.937V35.9722C13.1086 38.5694 12.1943 39.2963 9.4895 39.2963H9.21521V40.1519H20.7124V39.2963H20.5752C17.5048 39.2963 16.9105 38.2514 16.9105 35.2832V26.6285H34.8762L34.861 26.6361Z" fill="#DBB42C"/>
<rect x="0.5" y="0.5" width="51" height="51" stroke="#DBB42C"/>
</svg>
