<?xml version="1.0" encoding="UTF-8"?>
<svg id="Layer_2" data-name="Layer 2" xmlns="http://www.w3.org/2000/svg" xmlns:xlink="http://www.w3.org/1999/xlink" viewBox="0 0 1200 1200">
  <defs>
    <style>
      .cls-1 {
        clip-path: url(#clippath);
      }

      .cls-2 {
        stroke-width: 0px;
      }

      .cls-2, .cls-3 {
        fill: none;
      }

      .cls-3 {
        stroke: #dbbc5d;
        stroke-miterlimit: 10;
        stroke-width: 1.58px;
      }
    </style>
    <clipPath id="clippath">
      <path class="cls-2" d="M1200,0H0v1200h1200V0Z"/>
    </clipPath>
  </defs>
  <g id="Layer_1-2" data-name="Layer 1">
    <g class="cls-1">
      <path class="cls-3" d="M484.81,217.68l-110.9-110.48L477.38,4.12c4.1-4.08,10.74-4.08,14.83,0l103.47,103.08-110.9,110.48h.02Z"/>
      <path class="cls-3" d="M477.38,253.76l-103.47-103.08,110.9-110.48,110.9,110.48-103.47,103.08c-4.1,4.08-10.74,4.08-14.83,0h-.02Z"/>
      <path class="cls-3" d="M411.35,69.33l73.45,73.18,72.89-73.18"/>
      <path class="cls-3" d="M219.44,217.68l-110.9-110.48L212.02,4.12c4.1-4.08,10.74-4.08,14.83,0l103.49,103.08-110.9,110.48Z"/>
      <path class="cls-3" d="M212.02,253.76l-103.47-103.08,110.9-110.48,110.9,110.48-103.49,103.08c-4.1,4.08-10.74,4.08-14.83,0Z"/>
      <path class="cls-3" d="M145.99,69.33l73.45,73.18,72.89-73.18"/>
      <path class="cls-3" d="M327.61,153.38l49.75-49.54"/>
      <path class="cls-3" d="M484.81,617.76l-110.9-110.48,103.47-103.08c4.1-4.08,10.74-4.08,14.83,0l103.47,103.08-110.9,110.48h.02Z"/>
      <path class="cls-3" d="M477.38,653.84l-103.47-103.08,110.9-110.48,110.9,110.48-103.47,103.08c-4.1,4.08-10.74,4.08-14.83,0h-.02Z"/>
      <path class="cls-3" d="M411.35,469.41l73.45,73.18,72.89-73.18"/>
      <path class="cls-3" d="M219.44,617.76l-110.9-110.48,103.47-103.08c4.1-4.08,10.74-4.08,14.83,0l103.47,103.08-110.88,110.48Z"/>
      <path class="cls-3" d="M212.02,653.84l-103.47-103.08,110.9-110.48,110.9,110.48-103.47,103.08c-4.1,4.08-10.74,4.08-14.83,0h-.02Z"/>
      <path class="cls-3" d="M145.99,469.41l73.45,73.18,72.89-73.18"/>
      <path class="cls-3" d="M327.61,553.46l49.75-49.56"/>
      <path class="cls-3" d="M352.12,417.72l-110.9-110.48,103.47-103.08c4.1-4.08,10.74-4.08,14.83,0l103.47,103.08-110.9,110.48h.02Z"/>
      <path class="cls-3" d="M344.71,453.81l-103.49-103.1,110.9-110.48,110.9,110.48-103.47,103.08c-4.1,4.08-10.74,4.08-14.83,0v.02Z"/>
      <path class="cls-3" d="M278.66,269.37l73.45,73.18,72.89-73.18"/>
      <path class="cls-3" d="M460.3,353.43l49.73-49.56"/>
      <path class="cls-3" d="M194.94,353.43l49.73-49.56"/>
      <path class="cls-3" d="M86.83,417.72l-110.9-110.48,103.47-103.08c4.1-4.08,10.74-4.08,14.83,0l103.47,103.08-110.9,110.48h.02Z"/>
      <path class="cls-3" d="M79.43,453.81l-103.49-103.1,110.9-110.48,110.9,110.48-103.47,103.08c-4.1,4.08-10.74,4.08-14.83,0v.02Z"/>
      <path class="cls-3" d="M13.38,269.37l73.45,73.18,72.89-73.18"/>
      <path class="cls-3" d="M749.98,217.68l-110.9-110.48L742.56,4.12c4.1-4.08,10.74-4.08,14.83,0l103.47,103.08-110.9,110.48h.02Z"/>
      <path class="cls-3" d="M742.56,253.76l-103.47-103.08,110.9-110.48,110.9,110.48-103.47,103.08c-4.1,4.08-10.74,4.08-14.83,0h-.02Z"/>
      <path class="cls-3" d="M676.53,69.33l73.45,73.18,72.89-73.18"/>
      <path class="cls-3" d="M592.79,153.38l49.75-49.54"/>
      <path class="cls-3" d="M749.98,617.76l-110.9-110.48,103.47-103.08c4.1-4.08,10.74-4.08,14.83,0l103.47,103.08-110.9,110.48h.02Z"/>
      <path class="cls-3" d="M742.56,653.84l-103.47-103.08,110.9-110.48,110.9,110.48-103.47,103.08c-4.1,4.08-10.74,4.08-14.83,0h-.02Z"/>
      <path class="cls-3" d="M676.53,469.41l73.45,73.18,72.89-73.18"/>
      <path class="cls-3" d="M62.33,553.46l49.75-49.56"/>
      <path class="cls-3" d="M592.79,553.46l49.75-49.56"/>
      <path class="cls-3" d="M617.29,417.72l-110.9-110.48,103.47-103.08c4.1-4.08,10.74-4.08,14.83,0l103.47,103.08-110.9,110.48h.02Z"/>
      <path class="cls-3" d="M609.88,453.81l-103.49-103.1,110.9-110.48,110.9,110.48-103.47,103.08c-4.1,4.08-10.74,4.08-14.83,0v.02Z"/>
      <path class="cls-3" d="M543.84,269.37l73.45,73.18,72.89-73.18"/>
      <path class="cls-3" d="M725.47,353.43l49.73-49.56"/>
      <path class="cls-3" d="M62.33,153.38l49.75-49.54"/>
      <path class="cls-3" d="M1015.37,217.68l-110.9-110.48L1007.95,4.12c4.1-4.08,10.74-4.08,14.83,0l103.47,103.08-110.9,110.48h.02Z"/>
      <path class="cls-3" d="M1007.95,253.76l-103.47-103.08,110.9-110.48,110.9,110.48-103.47,103.08c-4.1,4.08-10.74,4.08-14.83,0h-.02Z"/>
      <path class="cls-3" d="M941.92,69.33l73.45,73.18,72.89-73.18"/>
      <path class="cls-3" d="M858.17,153.38l49.75-49.54"/>
      <path class="cls-3" d="M1281.1,217.68l-110.9-110.48,103.47-103.08c4.1-4.08,10.74-4.08,14.83,0l103.47,103.08-110.9,110.48h.02Z"/>
      <path class="cls-3" d="M1273.68,253.76l-103.47-103.08,110.9-110.48,110.9,110.48-103.47,103.08c-4.1,4.08-10.74,4.08-14.83,0h-.02Z"/>
      <path class="cls-3" d="M1123.91,153.38l49.75-49.54"/>
      <path class="cls-3" d="M1015.37,617.97l-110.9-110.48,103.47-103.08c4.1-4.08,10.74-4.08,14.83,0l103.47,103.08-110.9,110.48h.02Z"/>
      <path class="cls-3" d="M1007.95,654.05l-103.47-103.08,110.9-110.48,110.9,110.48-103.47,103.08c-4.1,4.08-10.74,4.08-14.83,0h-.02Z"/>
      <path class="cls-3" d="M941.92,469.62l73.45,73.18,72.89-73.18"/>
      <path class="cls-3" d="M858.17,553.67l49.75-49.54"/>
      <path class="cls-3" d="M352.12,817.73l-110.9-110.48,103.47-103.08c4.1-4.08,10.74-4.08,14.83,0l103.47,103.08-110.9,110.48h.02Z"/>
      <path class="cls-3" d="M344.71,853.82l-103.49-103.1,110.9-110.48,110.9,110.48-103.47,103.08c-4.1,4.08-10.74,4.08-14.83,0v.02Z"/>
      <path class="cls-3" d="M278.66,669.38l73.45,73.18,72.89-73.18"/>
      <path class="cls-3" d="M460.3,753.44l49.73-49.56"/>
      <path class="cls-3" d="M194.94,753.44l49.73-49.56"/>
      <path class="cls-3" d="M882.47,817.73l-110.9-110.48,103.47-103.08c4.1-4.08,10.74-4.08,14.83,0l103.47,103.08-110.9,110.48h.02Z"/>
      <path class="cls-3" d="M875.06,853.82l-103.49-103.1,110.9-110.48,110.9,110.48-103.47,103.08c-4.1,4.08-10.74,4.08-14.83,0v.02Z"/>
      <path class="cls-3" d="M809.01,669.38l73.45,73.18,72.89-73.18"/>
      <path class="cls-3" d="M725.29,753.44l49.73-49.56"/>
      <path class="cls-3" d="M617.29,817.73l-110.9-110.48,103.47-103.08c4.1-4.08,10.74-4.08,14.83,0l103.47,103.08-110.9,110.48h.02Z"/>
      <path class="cls-3" d="M609.88,853.82l-103.49-103.1,110.9-110.48,110.9,110.48-103.47,103.08c-4.1,4.08-10.74,4.08-14.83,0v.02Z"/>
      <path class="cls-3" d="M543.84,669.38l73.45,73.18,72.89-73.18"/>
      <path class="cls-3" d="M725.47,753.44l49.73-49.56"/>
      <path class="cls-3" d="M882.47,417.72l-110.9-110.48,103.47-103.08c4.1-4.08,10.74-4.08,14.83,0l103.47,103.08-110.9,110.48h.02Z"/>
      <path class="cls-3" d="M875.06,453.81l-103.49-103.1,110.9-110.48,110.9,110.48-103.47,103.08c-4.1,4.08-10.74,4.08-14.83,0v.02Z"/>
      <path class="cls-3" d="M809.01,269.37l73.45,73.18,72.89-73.18"/>
      <path class="cls-3" d="M990.32,353.43l49.73-49.56"/>
      <path class="cls-3" d="M1147.31,417.72l-110.9-110.48,103.47-103.08c4.1-4.08,10.74-4.08,14.83,0l103.47,103.08-110.9,110.48h.02Z"/>
      <path class="cls-3" d="M1139.9,453.81l-103.49-103.1,110.9-110.48,110.9,110.48-103.47,103.08c-4.1,4.08-10.74,4.08-14.83,0v.02Z"/>
      <path class="cls-3" d="M1073.86,269.37l73.45,73.18,72.89-73.18"/>
      <path class="cls-3" d="M352.12,17.63l-110.9-110.48,103.47-103.08c4.1-4.08,10.74-4.08,14.83,0l103.47,103.08-110.9,110.48h.02Z"/>
      <path class="cls-3" d="M344.71,53.72l-103.49-103.1,110.9-110.48,110.9,110.48-103.47,103.08c-4.1,4.08-10.74,4.08-14.83,0v.02Z"/>
      <path class="cls-3" d="M86.83,17.63L-24.06-92.85l103.47-103.08c4.1-4.08,10.74-4.08,14.83,0l103.47,103.08L86.82,17.63h.02Z"/>
      <path class="cls-3" d="M79.43,53.72L-24.06-49.38l110.9-110.48,110.9,110.48L94.26,53.7c-4.1,4.08-10.74,4.08-14.83,0v.02Z"/>
      <path class="cls-3" d="M617.29,17.63l-110.9-110.48,103.47-103.08c4.1-4.08,10.74-4.08,14.83,0l103.47,103.08-110.9,110.48h.02Z"/>
      <path class="cls-3" d="M609.88,53.72l-103.49-103.1,110.9-110.48,110.9,110.48-103.47,103.08c-4.1,4.08-10.74,4.08-14.83,0v.02Z"/>
      <path class="cls-3" d="M882.47,17.63l-110.9-110.48,103.47-103.08c4.1-4.08,10.74-4.08,14.83,0l103.47,103.08-110.9,110.48h.02Z"/>
      <path class="cls-3" d="M875.06,53.72l-103.49-103.1,110.9-110.48,110.9,110.48-103.47,103.08c-4.1,4.08-10.74,4.08-14.83,0v.02Z"/>
      <path class="cls-3" d="M1147.31,17.63l-110.9-110.48,103.47-103.08c4.1-4.08,10.74-4.08,14.83,0l103.47,103.08-110.9,110.48h.02Z"/>
      <path class="cls-3" d="M1139.9,53.72l-103.49-103.1,110.9-110.48,110.9,110.48-103.47,103.08c-4.1,4.08-10.74,4.08-14.83,0v.02Z"/>
      <path class="cls-3" d="M484.81,1017.7l-110.9-110.48,103.47-103.08c4.1-4.08,10.74-4.08,14.83,0l103.47,103.08-110.9,110.48h.02Z"/>
      <path class="cls-3" d="M477.38,1053.77l-103.47-103.08,110.9-110.48,110.9,110.48-103.47,103.08c-4.1,4.08-10.74,4.08-14.83,0h-.02Z"/>
      <path class="cls-3" d="M411.35,869.35l73.45,73.18,72.89-73.18"/>
      <path class="cls-3" d="M219.44,1017.7l-110.9-110.48,103.47-103.08c4.1-4.08,10.74-4.08,14.83,0l103.47,103.08-110.88,110.48Z"/>
      <path class="cls-3" d="M212.02,1053.77l-103.47-103.08,110.9-110.48,110.9,110.48-103.47,103.08c-4.1,4.08-10.74,4.08-14.83,0h-.02Z"/>
      <path class="cls-3" d="M145.99,869.35l73.45,73.18,72.89-73.18"/>
      <path class="cls-3" d="M327.61,953.39l49.75-49.56"/>
      <path class="cls-3" d="M749.98,1017.7l-110.9-110.48,103.47-103.08c4.1-4.08,10.74-4.08,14.83,0l103.47,103.08-110.9,110.48h.02Z"/>
      <path class="cls-3" d="M742.56,1053.77l-103.47-103.08,110.9-110.48,110.9,110.48-103.47,103.08c-4.1,4.08-10.74,4.08-14.83,0h-.02Z"/>
      <path class="cls-3" d="M676.53,869.35l73.45,73.18,72.89-73.18"/>
      <path class="cls-3" d="M62.33,953.39l49.75-49.56"/>
      <path class="cls-3" d="M592.79,953.39l49.75-49.56"/>
      <path class="cls-3" d="M1015.37,1017.91l-110.9-110.48,103.47-103.08c4.1-4.08,10.74-4.08,14.83,0l103.47,103.08-110.9,110.48h.02Z"/>
      <path class="cls-3" d="M1007.95,1053.98l-103.47-103.08,110.9-110.48,110.9,110.48-103.47,103.08c-4.1,4.08-10.74,4.08-14.83,0h-.02Z"/>
      <path class="cls-3" d="M941.92,869.56l73.45,73.18,72.89-73.18"/>
      <path class="cls-3" d="M858.17,953.6l49.75-49.54"/>
      <path class="cls-3" d="M1147.31,817.65l-110.9-110.48,103.47-103.08c4.1-4.08,10.74-4.08,14.83,0l103.47,103.08-110.9,110.48h.02Z"/>
      <path class="cls-3" d="M1139.9,853.74l-103.49-103.1,110.9-110.48,110.9,110.48-103.47,103.08c-4.1,4.08-10.74,4.08-14.83,0v.02Z"/>
      <path class="cls-3" d="M1073.86,669.3l73.45,73.18,72.89-73.18"/>
      <path class="cls-3" d="M990.32,753.36l49.73-49.56"/>
      <path class="cls-3" d="M460.11,753.44l49.73-49.56"/>
      <path class="cls-3" d="M86.73,817.73l-110.9-110.48,103.47-103.08c4.1-4.08,10.74-4.08,14.83,0l103.47,103.08-110.9,110.48h.02Z"/>
      <path class="cls-3" d="M79.32,853.82l-103.49-103.1,110.9-110.48,110.9,110.48-103.47,103.08c-4.1,4.08-10.74,4.08-14.83,0v.02Z"/>
      <path class="cls-3" d="M13.27,669.38l73.45,73.18,72.89-73.18"/>
      <path class="cls-3" d="M484.81,1417.32l-110.9-110.48,103.47-103.08c4.1-4.08,10.74-4.08,14.83,0l103.47,103.08-110.9,110.48h.02Z"/>
      <path class="cls-3" d="M219.44,1417.32l-110.9-110.48,103.47-103.08c4.1-4.08,10.74-4.08,14.83,0l103.47,103.08-110.88,110.48Z"/>
      <path class="cls-3" d="M749.98,1417.32l-110.9-110.48,103.47-103.08c4.1-4.08,10.74-4.08,14.83,0l103.47,103.08-110.9,110.48h.02Z"/>
      <path class="cls-3" d="M484.62,1417.32l-110.9-110.48,103.47-103.08c4.1-4.08,10.74-4.08,14.83,0l103.47,103.08-110.88,110.48Z"/>
      <path class="cls-3" d="M352.12,1217.66l-110.9-110.48,103.47-103.08c4.1-4.08,10.74-4.08,14.83,0l103.47,103.08-110.9,110.48h.02Z"/>
      <path class="cls-3" d="M344.71,1253.75l-103.49-103.1,110.9-110.48,110.9,110.48-103.47,103.08c-4.1,4.08-10.74,4.08-14.83,0v.02Z"/>
      <path class="cls-3" d="M278.66,1069.31l73.45,73.18,72.89-73.18"/>
      <path class="cls-3" d="M459.41,1153.37l49.73-49.56"/>
      <path class="cls-3" d="M194.05,1153.37l49.73-49.56"/>
      <path class="cls-3" d="M882.47,1217.66l-110.9-110.48,103.47-103.08c4.1-4.08,10.74-4.08,14.83,0l103.47,103.08-110.9,110.48h.02Z"/>
      <path class="cls-3" d="M875.06,1253.75l-103.49-103.1,110.9-110.48,110.9,110.48-103.47,103.08c-4.1,4.08-10.74,4.08-14.83,0v.02Z"/>
      <path class="cls-3" d="M809.01,1069.31l73.45,73.18,72.89-73.18"/>
      <path class="cls-3" d="M724.4,1153.37l49.73-49.56"/>
      <path class="cls-3" d="M617.29,1217.66l-110.9-110.48,103.47-103.08c4.1-4.08,10.74-4.08,14.83,0l103.47,103.08-110.9,110.48h.02Z"/>
      <path class="cls-3" d="M609.88,1253.75l-103.49-103.1,110.9-110.48,110.9,110.48-103.47,103.08c-4.1,4.08-10.74,4.08-14.83,0v.02Z"/>
      <path class="cls-3" d="M543.84,1069.31l73.45,73.18,72.89-73.18"/>
      <path class="cls-3" d="M1147.31,1217.58l-110.9-110.48,103.47-103.08c4.1-4.08,10.74-4.08,14.83,0l103.47,103.08-110.9,110.48h.02Z"/>
      <path class="cls-3" d="M1139.9,1253.67l-103.49-103.1,110.9-110.48,110.9,110.48-103.47,103.08c-4.1,4.08-10.74,4.08-14.83,0v.02Z"/>
      <path class="cls-3" d="M1073.86,1069.23l73.45,73.18,72.89-73.18"/>
      <path class="cls-3" d="M989.43,1153.29l49.73-49.56"/>
      <path class="cls-3" d="M459.22,1153.37l49.73-49.56"/>
      <path class="cls-3" d="M86.73,1217.66l-110.9-110.48,103.47-103.08c4.1-4.08,10.74-4.08,14.83,0l103.47,103.08-110.9,110.48h.02Z"/>
      <path class="cls-3" d="M79.32,1253.75l-103.49-103.1,110.9-110.48,110.9,110.48-103.47,103.08c-4.1,4.08-10.74,4.08-14.83,0v.02Z"/>
      <path class="cls-3" d="M13.27,1069.31l73.45,73.18,72.89-73.18"/>
    </g>
  </g>
</svg>